<svg width="2416" height="835" xmlns="http://www.w3.org/2000/svg" xmlns:xlink="http://www.w3.org/1999/xlink" xml:space="preserve" overflow="hidden"><g transform="translate(-1035 -815)"><g><rect x="1139" y="1527" width="113" height="113" stroke="#156082" stroke-width="13.75" stroke-linecap="butt" stroke-linejoin="miter" stroke-miterlimit="8" stroke-opacity="1" fill="#FFFFFF" fill-opacity="1"/><path d="M1196 1414 1196 1526.38" stroke="#156082" stroke-width="13.75" stroke-linecap="butt" stroke-linejoin="miter" stroke-miterlimit="8" stroke-opacity="1" fill="none" fill-rule="evenodd"/><rect x="1365" y="1527" width="114" height="113" stroke="#156082" stroke-width="13.75" stroke-linecap="butt" stroke-linejoin="miter" stroke-miterlimit="8" stroke-opacity="1" fill="#FFFFFF" fill-opacity="1"/><path d="M1422 1414 1422 1526.38" stroke="#156082" stroke-width="13.75" stroke-linecap="butt" stroke-linejoin="miter" stroke-miterlimit="8" stroke-opacity="1" fill="none" fill-rule="evenodd"/><path d="M1252 1583 1365.18 1583" stroke="#156082" stroke-width="13.75" stroke-linecap="butt" stroke-linejoin="miter" stroke-miterlimit="8" stroke-opacity="1" fill="none" fill-rule="evenodd"/><rect x="1591" y="1527" width="113" height="113" stroke="#156082" stroke-width="13.75" stroke-linecap="butt" stroke-linejoin="miter" stroke-miterlimit="8" stroke-opacity="1" fill="#FFFFFF" fill-opacity="1"/><path d="M1648 1414 1648 1526.38" stroke="#156082" stroke-width="13.75" stroke-linecap="butt" stroke-linejoin="miter" stroke-miterlimit="8" stroke-opacity="1" fill="none" fill-rule="evenodd"/><path d="M1479 1583 1591.44 1583" stroke="#156082" stroke-width="13.75" stroke-linecap="butt" stroke-linejoin="miter" stroke-miterlimit="8" stroke-opacity="1" fill="none" fill-rule="evenodd"/><rect x="1817" y="1527" width="113" height="113" stroke="#156082" stroke-width="13.75" stroke-linecap="butt" stroke-linejoin="miter" stroke-miterlimit="8" stroke-opacity="1" fill="#FFFFFF" fill-opacity="1"/><path d="M1874 1414 1874 1526.38" stroke="#156082" stroke-width="13.75" stroke-linecap="butt" stroke-linejoin="miter" stroke-miterlimit="8" stroke-opacity="1" fill="none" fill-rule="evenodd"/><path d="M1704 1583 1816.89 1583" stroke="#156082" stroke-width="13.75" stroke-linecap="butt" stroke-linejoin="miter" stroke-miterlimit="8" stroke-opacity="1" fill="none" fill-rule="evenodd"/><rect x="1139" y="849" width="113" height="114" stroke="#156082" stroke-width="13.75" stroke-linecap="butt" stroke-linejoin="miter" stroke-miterlimit="8" stroke-opacity="1" fill="#FFFFFF" fill-opacity="1"/><path d="M0 0 115.33 0.000721785" stroke="#156082" stroke-width="13.75" stroke-linecap="butt" stroke-linejoin="miter" stroke-miterlimit="8" stroke-opacity="1" fill="none" fill-rule="evenodd" transform="matrix(1 0 0 -1 1252 906.001)"/><rect x="1139" y="1074" width="113" height="114" stroke="#156082" stroke-width="13.75" stroke-linecap="butt" stroke-linejoin="miter" stroke-miterlimit="8" stroke-opacity="1" fill="#FFFFFF" fill-opacity="1"/><rect x="1368" y="849" width="113" height="114" stroke="#156082" stroke-width="13.75" stroke-linecap="butt" stroke-linejoin="miter" stroke-miterlimit="8" stroke-opacity="1" fill="#FFFFFF" fill-opacity="1"/><path d="M1196 963 1196 1074.3" stroke="#156082" stroke-width="13.75" stroke-linecap="butt" stroke-linejoin="miter" stroke-miterlimit="8" stroke-opacity="1" fill="none" fill-rule="evenodd"/><rect x="1365" y="1074" width="114" height="114" stroke="#156082" stroke-width="13.75" stroke-linecap="butt" stroke-linejoin="miter" stroke-miterlimit="8" stroke-opacity="1" fill="#FFFFFF" fill-opacity="1"/><path d="M0 0 2.15381 111.302" stroke="#156082" stroke-width="13.75" stroke-linecap="butt" stroke-linejoin="miter" stroke-miterlimit="8" stroke-opacity="1" fill="none" fill-rule="evenodd" transform="matrix(-1 0 0 1 1424.15 963)"/><path d="M1252 1131 1365.18 1131" stroke="#156082" stroke-width="13.75" stroke-linecap="butt" stroke-linejoin="miter" stroke-miterlimit="8" stroke-opacity="1" fill="none" fill-rule="evenodd"/><path d="M1481 906 1591.29 906" stroke="#156082" stroke-width="13.75" stroke-linecap="butt" stroke-linejoin="miter" stroke-miterlimit="8" stroke-opacity="1" fill="none" fill-rule="evenodd"/><rect x="1591" y="849" width="113" height="114" stroke="#156082" stroke-width="13.75" stroke-linecap="butt" stroke-linejoin="miter" stroke-miterlimit="8" stroke-opacity="1" fill="#FFFFFF" fill-opacity="1"/><path d="M1648 963 1648.73 1074.3" stroke="#156082" stroke-width="13.75" stroke-linecap="butt" stroke-linejoin="miter" stroke-miterlimit="8" stroke-opacity="1" fill="none" fill-rule="evenodd"/><path d="M1479 1131 1592.18 1131" stroke="#156082" stroke-width="13.75" stroke-linecap="butt" stroke-linejoin="miter" stroke-miterlimit="8" stroke-opacity="1" fill="none" fill-rule="evenodd"/><path d="M1704 906 1816.89 906" stroke="#156082" stroke-width="13.75" stroke-linecap="butt" stroke-linejoin="miter" stroke-miterlimit="8" stroke-opacity="1" fill="none" fill-rule="evenodd"/><rect x="1817" y="849" width="113" height="114" stroke="#156082" stroke-width="13.75" stroke-linecap="butt" stroke-linejoin="miter" stroke-miterlimit="8" stroke-opacity="1" fill="#FFFFFF" fill-opacity="1"/><rect x="1817" y="1074" width="113" height="114" stroke="#156082" stroke-width="13.75" stroke-linecap="butt" stroke-linejoin="miter" stroke-miterlimit="8" stroke-opacity="1" fill="#FFFFFF" fill-opacity="1"/><path d="M1874 963 1874 1074.3" stroke="#156082" stroke-width="13.75" stroke-linecap="butt" stroke-linejoin="miter" stroke-miterlimit="8" stroke-opacity="1" fill="none" fill-rule="evenodd"/><path d="M1705 1131 1817.15 1131" stroke="#156082" stroke-width="13.75" stroke-linecap="butt" stroke-linejoin="miter" stroke-miterlimit="8" stroke-opacity="1" fill="none" fill-rule="evenodd"/><rect x="1139" y="1300" width="113" height="114" stroke="#156082" stroke-width="13.75" stroke-linecap="butt" stroke-linejoin="miter" stroke-miterlimit="8" stroke-opacity="1" fill="#FFFFFF" fill-opacity="1"/><path d="M1196 1188 1196 1300.38" stroke="#156082" stroke-width="13.75" stroke-linecap="butt" stroke-linejoin="miter" stroke-miterlimit="8" stroke-opacity="1" fill="none" fill-rule="evenodd"/><rect x="1365" y="1300" width="114" height="114" stroke="#156082" stroke-width="13.75" stroke-linecap="butt" stroke-linejoin="miter" stroke-miterlimit="8" stroke-opacity="1" fill="#FFFFFF" fill-opacity="1"/><path d="M1422 1188 1422 1300.38" stroke="#156082" stroke-width="13.75" stroke-linecap="butt" stroke-linejoin="miter" stroke-miterlimit="8" stroke-opacity="1" fill="none" fill-rule="evenodd"/><path d="M1252 1357 1365.18 1357" stroke="#156082" stroke-width="13.75" stroke-linecap="butt" stroke-linejoin="miter" stroke-miterlimit="8" stroke-opacity="1" fill="none" fill-rule="evenodd"/><rect x="1591" y="1300" width="113" height="114" stroke="#156082" stroke-width="13.75" stroke-linecap="butt" stroke-linejoin="miter" stroke-miterlimit="8" stroke-opacity="1" fill="#FFFFFF" fill-opacity="1"/><path d="M0 0 0.734777 112.378" stroke="#156082" stroke-width="13.75" stroke-linecap="butt" stroke-linejoin="miter" stroke-miterlimit="8" stroke-opacity="1" fill="none" fill-rule="evenodd" transform="matrix(-1 0 0 1 1648.73 1188)"/><path d="M1479 1357 1591.44 1357" stroke="#156082" stroke-width="13.75" stroke-linecap="butt" stroke-linejoin="miter" stroke-miterlimit="8" stroke-opacity="1" fill="none" fill-rule="evenodd"/><rect x="1817" y="1300" width="113" height="114" stroke="#156082" stroke-width="13.75" stroke-linecap="butt" stroke-linejoin="miter" stroke-miterlimit="8" stroke-opacity="1" fill="#FFFFFF" fill-opacity="1"/><path d="M1874 1188 1874 1300.38" stroke="#156082" stroke-width="13.75" stroke-linecap="butt" stroke-linejoin="miter" stroke-miterlimit="8" stroke-opacity="1" fill="none" fill-rule="evenodd"/><path d="M1704 1357 1816.89 1357" stroke="#156082" stroke-width="13.75" stroke-linecap="butt" stroke-linejoin="miter" stroke-miterlimit="8" stroke-opacity="1" fill="none" fill-rule="evenodd"/><rect x="1592" y="1074" width="113" height="114" stroke="#156082" stroke-width="13.75" stroke-linecap="butt" stroke-linejoin="miter" stroke-miterlimit="8" stroke-opacity="1" fill="#FFFFFF" fill-opacity="1"/><path d="M1815.5 1072.41 1768.35 1209.68 1862.63 1209.68ZM1373.71 1045.76 1373.71 1160.27 1402.02 1160.27C1418.83 1160.27 1432.68 1159.24 1443.58 1157.19 1454.47 1155.13 1463.6 1151.03 1470.98 1144.87 1477.33 1139.39 1481.92 1132.84 1484.75 1125.22 1487.58 1117.61 1488.99 1108.32 1488.99 1097.37 1488.99 1086.58 1486.08 1077.3 1480.24 1069.51 1474.41 1061.72 1467.64 1056.29 1459.92 1053.21 1449.62 1049.1 1439.59 1046.83 1429.81 1046.4 1420.03 1045.97 1406.99 1045.76 1390.7 1045.76ZM2168.41 1044.73 2168.41 1147.92 2198.77 1147.92C2214.55 1147.92 2227.76 1147.15 2238.4 1145.6 2249.03 1144.06 2257.95 1140.54 2265.16 1135.05 2272.02 1129.73 2277.04 1123.86 2280.21 1117.42 2283.39 1110.99 2284.97 1102.37 2284.97 1091.56 2284.97 1081.96 2283 1073.72 2279.05 1066.86 2275.11 1060 2268.33 1054.59 2258.73 1050.65 2252.04 1047.9 2244.23 1046.23 2235.31 1045.63 2226.39 1045.03 2216.01 1044.73 2204.17 1044.73ZM3039.41 1038.56C3026.88 1038.56 3015.09 1040.79 3004.03 1045.25 2992.96 1049.71 2982.8 1057.08 2973.53 1067.38 2964.96 1076.98 2957.96 1090.23 2952.56 1107.13 2947.16 1124.03 2944.46 1143.63 2944.46 1165.93 2944.46 1188.75 2947.07 1208.17 2952.3 1224.21 2957.54 1240.25 2964.44 1253.33 2973.02 1263.46 2981.6 1273.58 2991.63 1281.04 3003.13 1285.84 3014.62 1290.65 3026.71 1293.05 3039.41 1293.05 3052.1 1293.05 3064.2 1290.6 3075.69 1285.71 3087.18 1280.83 3097.22 1273.23 3105.8 1262.94 3115.4 1251.28 3122.52 1237.51 3127.16 1221.64 3131.79 1205.77 3134.1 1187.12 3134.1 1165.67 3134.1 1142.69 3131.44 1123.13 3126.13 1107 3120.81 1090.88 3113.86 1077.84 3105.28 1067.89 3096.53 1057.6 3086.46 1050.13 3075.05 1045.5 3063.64 1040.87 3051.76 1038.56 3039.41 1038.56ZM2070.11 974.224 2235.82 974.224C2258.47 974.224 2277.94 975.511 2294.24 978.084 2310.53 980.657 2325.8 986.232 2340.04 994.81 2354.45 1003.39 2365.9 1014.5 2374.39 1028.13 2382.89 1041.77 2387.13 1058.88 2387.13 1079.47 2387.13 1107.78 2380.57 1130.85 2367.45 1148.69 2354.32 1166.53 2335.58 1181.37 2311.22 1193.21L2439.11 1357.38 2318.42 1357.38 2214.19 1216.88 2168.41 1216.88 2168.41 1357.38 2070.11 1357.38ZM1759.86 974.224 1873.59 974.224 2015.12 1357.38 1913.08 1357.38 1886.39 1279.93 1744.6 1279.93 1717.91 1357.38 1618.33 1357.38ZM1274.9 974.224 1437.53 974.224C1461.89 974.224 1482.43 976.326 1499.16 980.528 1515.88 984.731 1530.68 991.036 1543.55 999.442 1558.99 1009.56 1570.78 1022.52 1578.93 1038.3 1587.08 1054.08 1591.15 1073.04 1591.15 1095.17 1591.15 1112.32 1588.15 1129.09 1582.14 1145.47 1576.14 1161.86 1567.56 1175.62 1556.41 1186.77 1541.14 1201.87 1524.12 1213.28 1505.33 1221 1486.55 1228.72 1463.17 1232.58 1435.21 1232.58L1373.71 1232.58 1373.71 1357.38 1274.9 1357.38ZM2656.04 966.762C2672.17 966.762 2686.71 967.662 2699.66 969.464 2712.61 971.265 2724.58 973.624 2735.56 976.54 2747.05 979.799 2757.47 983.445 2766.82 987.476 2776.17 991.508 2784.36 995.239 2791.4 998.67L2791.4 1091.56 2780.07 1091.56C2775.27 1087.47 2769.22 1082.6 2761.93 1076.97 2754.64 1071.34 2746.36 1065.79 2737.1 1060.33 2727.67 1054.87 2717.46 1050.26 2706.48 1046.5 2695.5 1042.75 2683.75 1040.87 2671.23 1040.87 2657.33 1040.87 2644.12 1043.05 2631.6 1047.42 2619.08 1051.78 2607.5 1059.02 2596.86 1069.12 2586.74 1078.88 2578.55 1091.8 2572.29 1107.89 2566.02 1123.99 2562.89 1143.5 2562.89 1166.45 2562.89 1190.41 2566.28 1210.44 2573.06 1226.53 2579.83 1242.63 2588.37 1255.3 2598.66 1264.54 2609.13 1273.95 2620.79 1280.67 2633.66 1284.7 2646.52 1288.72 2659.22 1290.73 2671.74 1290.73 2683.75 1290.73 2695.63 1288.94 2707.38 1285.36 2719.13 1281.77 2729.98 1276.91 2739.93 1270.76 2748.34 1265.81 2756.14 1260.52 2763.35 1254.89 2770.55 1249.26 2776.47 1244.39 2781.1 1240.3L2791.4 1240.3 2791.4 1331.9C2781.79 1336.19 2772.61 1340.22 2763.86 1344 2755.11 1347.77 2745.94 1351.03 2736.33 1353.78 2723.81 1357.38 2712.06 1360.12 2701.08 1362.01 2690.1 1363.9 2675 1364.84 2655.79 1364.84 2627.31 1364.84 2601.02 1360.64 2576.92 1352.23 2552.81 1343.83 2532.1 1331.3 2514.77 1314.66 2497.45 1298.02 2484.02 1277.27 2474.5 1252.39 2464.98 1227.52 2460.22 1198.78 2460.22 1166.19 2460.22 1135.82 2464.77 1108.29 2473.86 1083.59 2482.95 1058.88 2496.16 1037.7 2513.49 1020.03 2530.13 1003.04 2550.76 989.921 2575.37 980.657 2599.99 971.393 2626.88 966.762 2656.04 966.762ZM3039.15 966.247C3100.57 966.247 3148.86 984.131 3184.02 1019.9 3219.19 1055.67 3236.78 1104.34 3236.78 1165.93 3236.78 1227 3219.28 1275.51 3184.28 1311.45 3149.29 1347.39 3100.91 1365.36 3039.15 1365.36 2977.56 1365.36 2929.27 1347.39 2894.28 1311.45 2859.28 1275.51 2841.78 1227 2841.78 1165.93 2841.78 1104.34 2859.28 1055.67 2894.28 1019.9 2929.27 984.131 2977.56 966.247 3039.15 966.247Z" stroke="#000000" stroke-width="14" stroke-linecap="butt" stroke-linejoin="miter" stroke-miterlimit="8" stroke-opacity="1" fill="#0B3041" fill-rule="evenodd" fill-opacity="1"/><text fill="#000000" fill-opacity="0" font-family="Arial,Arial_MSFontService,sans-serif" font-size="399.11" direction="ltr" writing-mode="lr-tb" x="1274.9" y="1315.47">PARCO</text><path d="M3033.29 1469.31C3029.79 1469.6 3026.01 1469.99 3021.95 1470.49 3017.88 1470.99 3014.79 1471.58 3012.69 1472.25 3010.1 1473.06 3008.13 1474.24 3006.76 1475.79 3005.4 1477.34 3004.72 1479.38 3004.72 1481.9 3004.72 1483.57 3004.86 1484.93 3005.15 1485.98 3005.44 1487.03 3006.15 1488.03 3007.3 1488.99 3008.4 1489.94 3009.72 1490.64 3011.25 1491.1 3012.78 1491.55 3015.17 1491.78 3018.43 1491.78 3021.01 1491.78 3023.63 1491.25 3026.29 1490.2 3028.94 1489.15 3031.28 1487.77 3033.29 1486.05ZM1599.28 1469.31C1595.78 1469.6 1592 1469.99 1587.94 1470.49 1583.87 1470.99 1580.78 1471.58 1578.68 1472.25 1576.09 1473.06 1574.12 1474.24 1572.75 1475.79 1571.39 1477.34 1570.71 1479.38 1570.71 1481.9 1570.71 1483.57 1570.85 1484.93 1571.14 1485.98 1571.43 1487.03 1572.14 1488.03 1573.29 1488.99 1574.39 1489.94 1575.71 1490.64 1577.24 1491.1 1578.77 1491.55 1581.16 1491.78 1584.42 1491.78 1587 1491.78 1589.62 1491.25 1592.28 1490.2 1594.93 1489.15 1597.27 1487.77 1599.28 1486.05ZM1428.55 1469.31C1425.05 1469.6 1421.27 1469.99 1417.21 1470.49 1413.14 1470.99 1410.05 1471.58 1407.95 1472.25 1405.36 1473.06 1403.39 1474.24 1402.03 1475.79 1400.66 1477.34 1399.98 1479.38 1399.98 1481.9 1399.98 1483.57 1400.12 1484.93 1400.41 1485.98 1400.7 1487.03 1401.41 1488.03 1402.56 1488.99 1403.66 1489.94 1404.98 1490.64 1406.51 1491.1 1408.04 1491.55 1410.43 1491.78 1413.69 1491.78 1416.27 1491.78 1418.89 1491.25 1421.55 1490.2 1424.2 1489.15 1426.54 1487.77 1428.55 1486.05ZM3123.25 1443.9C3120.82 1443.9 3118.31 1444.27 3115.73 1445.01 3113.16 1445.75 3110.7 1446.82 3108.36 1448.2L3108.36 1488.62C3110.22 1489.29 3111.99 1489.74 3113.66 1489.98 3115.33 1490.22 3117.33 1490.34 3119.67 1490.34 3126.5 1490.34 3131.58 1488.34 3134.93 1484.32 3138.27 1480.31 3139.94 1474.29 3139.94 1466.26 3139.94 1459.1 3138.72 1453.58 3136.29 1449.71 3133.85 1445.84 3129.51 1443.9 3123.25 1443.9ZM2350.39 1443.9C2347.95 1443.9 2345.45 1444.27 2342.87 1445.01 2340.29 1445.75 2337.83 1446.82 2335.49 1448.2L2335.49 1488.69C2337.21 1489.36 2339.05 1489.79 2341.01 1489.98 2342.97 1490.17 2344.9 1490.27 2346.81 1490.27 2353.64 1490.27 2358.72 1488.28 2362.06 1484.29 2365.4 1480.3 2367.08 1474.29 2367.08 1466.26 2367.08 1458.43 2365.74 1452.74 2363.06 1449.21 2360.39 1445.67 2356.17 1443.9 2350.39 1443.9ZM2779.35 1443.18C2772.57 1443.18 2767.48 1445.13 2764.1 1449.03 2760.71 1452.93 2759.01 1458.38 2759.01 1465.36 2759.01 1473.12 2760.45 1478.52 2763.34 1481.59 2766.23 1484.65 2770.52 1486.18 2776.2 1486.18 2778.78 1486.18 2781.31 1485.77 2783.79 1484.96 2786.27 1484.15 2788.54 1483.07 2790.59 1481.73L2790.59 1445.19C2789.11 1444.57 2787.3 1444.08 2785.15 1443.72 2783 1443.36 2781.07 1443.18 2779.35 1443.18ZM2091.75 1442.04C2089.26 1442.04 2087.04 1442.37 2085.11 1443.04 2083.17 1443.71 2081.31 1445.05 2079.54 1447.06 2077.96 1448.93 2076.71 1451.49 2075.77 1454.74 2074.84 1457.99 2074.38 1462.09 2074.38 1467.01 2074.38 1471.42 2074.78 1475.23 2075.6 1478.46 2076.41 1481.69 2077.61 1484.29 2079.18 1486.25 2080.72 1488.12 2082.55 1489.48 2084.68 1490.34 2086.8 1491.2 2089.23 1491.63 2091.96 1491.63 2094.31 1491.63 2096.54 1491.24 2098.67 1490.45 2100.8 1489.66 2102.61 1488.33 2104.09 1486.47 2105.77 1484.41 2107.02 1481.93 2107.86 1479.04 2108.7 1476.14 2109.12 1472.13 2109.12 1467.01 2109.12 1462.28 2108.68 1458.31 2107.82 1455.1 2106.96 1451.89 2105.77 1449.33 2104.23 1447.42 2102.7 1445.46 2100.86 1444.07 2098.71 1443.26 2096.55 1442.44 2094.23 1442.04 2091.75 1442.04ZM1787.1 1440.17C1782.12 1440.17 1778.03 1441.46 1774.82 1444.05 1771.62 1446.63 1769.82 1450.77 1769.44 1456.46L1802.96 1456.46C1802.82 1451.06 1801.48 1446.99 1798.94 1444.26 1796.4 1441.53 1792.46 1440.17 1787.1 1440.17ZM2583.44 1426.53 2609.35 1426.53 2609.35 1507.14 2583.44 1507.14ZM2411.49 1426.53 2437.4 1426.53 2437.4 1466.51C2437.4 1470.58 2437.53 1473.96 2437.79 1476.67 2438.06 1479.37 2438.67 1481.61 2439.62 1483.38 2440.53 1485.15 2441.91 1486.44 2443.75 1487.26 2445.59 1488.07 2448.17 1488.48 2451.47 1488.48 2453.67 1488.48 2456.11 1488.07 2458.79 1487.26 2461.47 1486.44 2464.05 1485.25 2466.54 1483.67L2466.54 1426.53 2492.45 1426.53 2492.45 1507.14 2466.54 1507.14 2466.54 1498.24C2461.76 1501.87 2457.39 1504.64 2453.42 1506.53 2449.46 1508.42 2444.73 1509.36 2439.23 1509.36 2430.34 1509.36 2423.49 1506.8 2418.69 1501.68 2413.89 1496.56 2411.49 1489 2411.49 1479ZM1530.05 1426.24C1530.95 1426.24 1531.98 1426.27 1533.13 1426.32 1534.27 1426.36 1535.27 1426.44 1536.13 1426.53L1536.13 1451.15 1533.84 1451.15C1532.74 1450.77 1530.98 1450.48 1528.54 1450.29 1526.11 1450.1 1524.08 1450 1522.45 1450 1518.78 1450 1515.53 1450.24 1512.71 1450.72 1509.9 1451.2 1506.86 1452.01 1503.62 1453.16L1503.62 1507.14 1477.71 1507.14 1477.71 1426.53 1503.62 1426.53 1503.62 1438.38C1509.3 1433.49 1514.24 1430.25 1518.44 1428.65 1522.64 1427.05 1526.51 1426.24 1530.05 1426.24ZM2768.87 1424.31C2773.22 1424.31 2777.18 1424.82 2780.74 1425.85 2784.3 1426.88 2787.53 1428.3 2790.45 1430.12L2791.38 1426.53 2816.5 1426.53 2816.5 1497.88C2816.5 1505.44 2815.43 1511.8 2813.27 1516.97 2811.12 1522.14 2808.11 1526.18 2804.23 1529.1 2800.35 1532.07 2795.68 1534.21 2790.2 1535.53 2784.72 1536.84 2778.53 1537.5 2771.64 1537.5 2766.04 1537.5 2760.53 1537.16 2755.1 1536.49 2749.67 1535.82 2744.97 1535.01 2740.99 1534.05L2740.99 1513.89 2744.15 1513.89C2747.3 1515.13 2751.15 1516.27 2755.69 1517.29 2760.23 1518.32 2764.29 1518.84 2767.87 1518.84 2772.65 1518.84 2776.53 1518.4 2779.52 1517.51 2782.51 1516.62 2784.79 1515.37 2786.36 1513.74 2787.85 1512.21 2788.92 1510.25 2789.59 1507.86 2790.26 1505.46 2790.59 1502.59 2790.59 1499.24L2790.59 1497.74C2787.49 1500.27 2784.05 1502.28 2780.27 1503.76 2776.49 1505.25 2772.29 1505.99 2767.65 1505.99 2756.37 1505.99 2747.68 1502.59 2741.56 1495.8 2735.44 1489 2732.38 1478.67 2732.38 1464.79 2732.38 1458.14 2733.31 1452.4 2735.18 1447.56 2737.04 1442.73 2739.67 1438.52 2743.06 1434.93 2746.22 1431.58 2750.1 1428.97 2754.71 1427.11 2759.32 1425.24 2764.04 1424.31 2768.87 1424.31ZM2687.08 1424.31C2695.77 1424.31 2702.57 1426.84 2707.47 1431.92 2712.37 1436.99 2714.82 1444.57 2714.82 1454.67L2714.82 1507.14 2688.91 1507.14 2688.91 1467.16C2688.91 1463.9 2688.74 1460.66 2688.4 1457.43 2688.07 1454.2 2687.49 1451.82 2686.68 1450.29 2685.72 1448.52 2684.32 1447.23 2682.48 1446.41 2680.64 1445.6 2678.07 1445.19 2674.77 1445.19 2672.42 1445.19 2670.04 1445.58 2667.62 1446.34 2665.21 1447.11 2662.59 1448.33 2659.76 1450L2659.76 1507.14 2633.85 1507.14 2633.85 1426.53 2659.76 1426.53 2659.76 1435.43C2664.35 1431.84 2668.76 1429.09 2672.99 1427.18 2677.22 1425.26 2681.91 1424.31 2687.08 1424.31ZM2361.95 1424.31C2371.98 1424.31 2379.78 1427.99 2385.35 1435.36 2390.92 1442.73 2393.7 1452.85 2393.7 1465.72 2393.7 1472.37 2392.69 1478.43 2390.66 1483.88 2388.63 1489.34 2385.96 1493.84 2382.66 1497.38 2379.22 1501.11 2375.33 1503.93 2370.98 1505.85 2366.63 1507.76 2361.97 1508.72 2357 1508.72 2352.41 1508.72 2348.52 1508.23 2345.31 1507.25 2342.11 1506.26 2338.84 1504.89 2335.49 1503.12L2335.49 1536.71 2309.58 1536.71 2309.58 1426.53 2335.49 1426.53 2335.49 1434.93C2339.46 1431.77 2343.51 1429.21 2347.64 1427.25 2351.78 1425.29 2356.55 1424.31 2361.95 1424.31ZM2206.4 1424.31C2211.7 1424.31 2216.39 1425.49 2220.45 1427.86 2224.51 1430.23 2227.69 1433.71 2229.98 1438.3 2235.14 1433.95 2240.16 1430.53 2245.04 1428.04 2249.91 1425.55 2254.69 1424.31 2259.37 1424.31 2268.07 1424.31 2274.67 1426.91 2279.19 1432.13 2283.7 1437.35 2285.96 1444.86 2285.96 1454.67L2285.96 1507.14 2260.05 1507.14 2260.05 1466.87C2260.05 1462.9 2259.97 1459.55 2259.8 1456.82 2259.63 1454.09 2259.12 1451.87 2258.26 1450.15 2257.44 1448.42 2256.15 1447.17 2254.38 1446.38 2252.61 1445.59 2250.12 1445.19 2246.91 1445.19 2244.76 1445.19 2242.66 1445.56 2240.6 1446.31 2238.54 1447.05 2236.03 1448.28 2233.06 1450L2233.06 1507.14 2207.15 1507.14 2207.15 1466.87C2207.15 1462.95 2207.05 1459.61 2206.86 1456.86 2206.67 1454.11 2206.14 1451.87 2205.28 1450.15 2204.42 1448.42 2203.12 1447.17 2201.37 1446.38 2199.62 1445.59 2197.17 1445.19 2194.01 1445.19 2191.48 1445.19 2189.01 1445.71 2186.62 1446.74 2184.23 1447.77 2182.08 1448.85 2180.16 1450L2180.16 1507.14 2154.25 1507.14 2154.25 1426.53 2180.16 1426.53 2180.16 1435.43C2184.61 1431.94 2188.86 1429.21 2192.92 1427.25 2196.98 1425.29 2201.48 1424.31 2206.4 1424.31ZM3017.28 1424.24C3031.97 1424.24 3042.58 1426.5 3049.11 1431.02 3055.64 1435.54 3058.91 1442.63 3058.91 1452.3L3058.91 1507.14 3033.29 1507.14 3033.29 1498.6C3031.9 1499.65 3030.18 1500.92 3028.12 1502.4 3026.06 1503.88 3024.12 1505.06 3022.3 1505.92 3019.77 1507.07 3017.14 1507.92 3014.41 1508.47 3011.68 1509.02 3008.69 1509.29 3005.44 1509.29 2997.78 1509.29 2991.37 1506.92 2986.2 1502.19 2981.03 1497.45 2978.45 1491.39 2978.45 1484.03 2978.45 1478.14 2979.76 1473.33 2982.4 1469.6 2985.03 1465.87 2988.76 1462.92 2993.59 1460.77 2998.38 1458.62 3004.31 1457.09 3011.39 1456.18 3018.48 1455.27 3025.82 1454.6 3033.43 1454.17L3033.43 1453.74C3033.43 1449.29 3031.61 1446.21 3027.97 1444.51 3024.34 1442.81 3018.98 1441.96 3011.9 1441.96 3007.64 1441.96 3003.09 1442.72 2998.26 1444.23 2993.43 1445.73 2989.96 1446.89 2987.85 1447.71L2985.48 1447.71 2985.48 1428.25C2988.21 1427.54 2992.65 1426.69 2998.8 1425.71 3004.95 1424.73 3011.11 1424.24 3017.28 1424.24ZM1583.27 1424.24C1597.96 1424.24 1608.57 1426.5 1615.1 1431.02 1621.63 1435.54 1624.9 1442.63 1624.9 1452.3L1624.9 1507.14 1599.28 1507.14 1599.28 1498.6C1597.89 1499.65 1596.17 1500.92 1594.11 1502.4 1592.05 1503.88 1590.11 1505.06 1588.29 1505.92 1585.76 1507.07 1583.13 1507.92 1580.4 1508.47 1577.67 1509.02 1574.68 1509.29 1571.43 1509.29 1563.77 1509.29 1557.36 1506.92 1552.19 1502.19 1547.02 1497.45 1544.44 1491.39 1544.44 1484.03 1544.44 1478.14 1545.75 1473.33 1548.39 1469.6 1551.02 1465.87 1554.75 1462.92 1559.58 1460.77 1564.37 1458.62 1570.3 1457.09 1577.38 1456.18 1584.47 1455.27 1591.81 1454.6 1599.42 1454.17L1599.42 1453.74C1599.42 1449.29 1597.6 1446.21 1593.96 1444.51 1590.33 1442.81 1584.97 1441.96 1577.89 1441.96 1573.63 1441.96 1569.08 1442.72 1564.25 1444.23 1559.42 1445.73 1555.95 1446.89 1553.84 1447.71L1551.47 1447.71 1551.47 1428.25C1554.2 1427.54 1558.64 1426.69 1564.79 1425.71 1570.94 1424.73 1577.1 1424.24 1583.27 1424.24ZM1412.54 1424.24C1427.23 1424.24 1437.84 1426.5 1444.37 1431.02 1450.91 1435.54 1454.17 1442.63 1454.17 1452.3L1454.17 1507.14 1428.55 1507.14 1428.55 1498.6C1427.16 1499.65 1425.44 1500.92 1423.38 1502.4 1421.32 1503.88 1419.38 1505.06 1417.56 1505.92 1415.03 1507.07 1412.4 1507.92 1409.67 1508.47 1406.94 1509.02 1403.95 1509.29 1400.7 1509.29 1393.04 1509.29 1386.63 1506.92 1381.46 1502.19 1376.29 1497.45 1373.71 1491.39 1373.71 1484.03 1373.71 1478.14 1375.02 1473.33 1377.66 1469.6 1380.29 1465.87 1384.02 1462.92 1388.85 1460.77 1393.64 1458.62 1399.57 1457.09 1406.65 1456.18 1413.74 1455.27 1421.08 1454.6 1428.69 1454.17L1428.69 1453.74C1428.69 1449.29 1426.87 1446.21 1423.24 1444.51 1419.6 1442.81 1414.24 1441.96 1407.16 1441.96 1402.9 1441.96 1398.35 1442.72 1393.52 1444.23 1388.69 1445.73 1385.22 1446.89 1383.11 1447.71L1380.74 1447.71 1380.74 1428.25C1383.47 1427.54 1387.91 1426.69 1394.06 1425.71 1400.21 1424.73 1406.37 1424.24 1412.54 1424.24ZM2091.75 1424.02C2105.81 1424.02 2116.69 1427.85 2124.37 1435.5 2132.05 1443.16 2135.89 1453.62 2135.89 1466.87 2135.89 1480.13 2132.02 1490.57 2124.3 1498.2 2116.57 1505.83 2105.72 1509.65 2091.75 1509.65 2077.77 1509.65 2066.92 1505.83 2059.19 1498.2 2051.47 1490.57 2047.6 1480.13 2047.6 1466.87 2047.6 1453.52 2051.49 1443.04 2059.27 1435.43 2067.04 1427.82 2077.87 1424.02 2091.75 1424.02ZM1789.18 1424.02C1802.29 1424.02 1812.15 1427.33 1818.75 1433.96 1825.35 1440.59 1828.66 1450.12 1828.66 1462.56L1828.66 1471.61 1769.51 1471.61C1769.89 1477.92 1772.3 1482.76 1776.72 1486.11 1781.15 1489.46 1787.67 1491.13 1796.28 1491.13 1801.74 1491.13 1807.03 1490.15 1812.15 1488.19 1817.27 1486.23 1821.31 1484.12 1824.28 1481.87L1827.15 1481.87 1827.15 1502.62C1821.31 1504.96 1815.81 1506.66 1810.64 1507.71 1805.47 1508.76 1799.75 1509.29 1793.48 1509.29 1777.31 1509.29 1764.92 1505.65 1756.3 1498.38 1747.69 1491.11 1743.38 1480.75 1743.38 1467.3 1743.38 1454 1747.46 1443.46 1755.62 1435.68 1763.78 1427.91 1774.97 1424.02 1789.18 1424.02ZM1301.03 1420.22 1301.03 1452.16 1308.92 1452.16C1313.61 1452.16 1317.48 1451.87 1320.52 1451.3 1323.55 1450.72 1326.1 1449.58 1328.16 1447.86 1329.93 1446.33 1331.21 1444.51 1332 1442.38 1332.79 1440.26 1333.18 1437.67 1333.18 1434.61 1333.18 1431.6 1332.37 1429.01 1330.74 1426.84 1329.12 1424.67 1327.23 1423.15 1325.07 1422.29 1322.2 1421.15 1319.4 1420.51 1316.68 1420.39 1313.95 1420.28 1310.31 1420.22 1305.77 1420.22ZM2517.91 1403.49 2543.82 1403.49 2543.82 1426.53 2567.94 1426.53 2567.94 1444.05 2543.82 1444.05 2543.82 1472.66C2543.82 1475.48 2543.85 1477.95 2543.9 1480.06 2543.94 1482.17 2544.32 1484.06 2545.04 1485.74 2545.71 1487.42 2546.89 1488.75 2548.58 1489.73 2550.28 1490.71 2552.75 1491.2 2555.99 1491.2 2557.33 1491.2 2559.08 1490.92 2561.25 1490.34 2563.42 1489.77 2564.94 1489.24 2565.79 1488.76L2567.94 1488.76 2567.94 1506.43C2565.17 1507.14 2562.22 1507.7 2559.11 1508.11 2556 1508.51 2552.2 1508.72 2547.7 1508.72 2537.65 1508.72 2530.17 1506.68 2525.27 1502.62 2520.36 1498.55 2517.91 1491.59 2517.91 1481.73L2517.91 1444.05 2507.29 1444.05 2507.29 1426.53 2517.91 1426.53ZM2892.53 1400.26 2920.09 1400.26 2920.09 1486.47 2969.62 1486.47 2969.62 1507.14 2892.53 1507.14ZM1273.47 1400.26 1318.83 1400.26C1325.62 1400.26 1331.35 1400.85 1336.02 1402.02 1340.68 1403.19 1344.81 1404.95 1348.4 1407.3 1352.71 1410.12 1356 1413.73 1358.27 1418.13 1360.54 1422.54 1361.68 1427.82 1361.68 1434 1361.68 1438.78 1360.84 1443.46 1359.17 1448.03 1357.49 1452.6 1355.1 1456.44 1351.99 1459.55 1347.73 1463.76 1342.98 1466.94 1337.74 1469.1 1332.5 1471.25 1325.98 1472.33 1318.18 1472.33L1301.03 1472.33 1301.03 1507.14 1273.47 1507.14ZM1997.31 1398.18C2001.81 1398.18 2005.87 1398.43 2009.48 1398.93 2013.09 1399.44 2016.43 1400.09 2019.49 1400.91 2022.7 1401.82 2025.6 1402.83 2028.21 1403.96 2030.82 1405.08 2033.1 1406.12 2035.07 1407.08L2035.07 1432.99 2031.91 1432.99C2030.57 1431.85 2028.88 1430.49 2026.85 1428.92 2024.81 1427.35 2022.51 1425.8 2019.92 1424.28 2017.29 1422.76 2014.44 1421.47 2011.38 1420.42 2008.32 1419.38 2005.04 1418.85 2001.55 1418.85 1997.67 1418.85 1993.99 1419.46 1990.49 1420.68 1987 1421.9 1983.77 1423.91 1980.8 1426.73 1977.98 1429.45 1975.7 1433.06 1973.95 1437.55 1972.2 1442.04 1971.33 1447.48 1971.33 1453.88 1971.33 1460.56 1972.27 1466.15 1974.16 1470.64 1976.05 1475.13 1978.43 1478.66 1981.31 1481.24 1984.22 1483.87 1987.48 1485.74 1991.07 1486.86 1994.66 1487.99 1998.2 1488.55 2001.69 1488.55 2005.04 1488.55 2008.35 1488.05 2011.63 1487.05 2014.91 1486.05 2017.94 1484.69 2020.71 1482.98 2023.06 1481.6 2025.23 1480.12 2027.24 1478.55 2029.25 1476.98 2030.9 1475.62 2032.2 1474.48L2035.07 1474.48 2035.07 1500.03C2032.39 1501.23 2029.83 1502.35 2027.39 1503.41 2024.95 1504.46 2022.39 1505.37 2019.71 1506.13 2016.21 1507.14 2012.94 1507.9 2009.87 1508.43 2006.81 1508.96 2002.6 1509.22 1997.24 1509.22 1989.3 1509.22 1981.96 1508.05 1975.24 1505.7 1968.52 1503.36 1962.74 1499.86 1957.91 1495.22 1953.07 1490.58 1949.33 1484.79 1946.67 1477.85 1944.02 1470.91 1942.69 1462.9 1942.69 1453.81 1942.69 1445.34 1943.96 1437.66 1946.49 1430.77 1949.03 1423.88 1952.71 1417.97 1957.55 1413.04 1962.19 1408.3 1967.94 1404.64 1974.81 1402.06 1981.68 1399.47 1989.18 1398.18 1997.31 1398.18ZM3082.45 1395.45 3108.36 1395.45 3108.36 1434.93C3112.32 1431.77 3116.38 1429.21 3120.51 1427.25 3124.64 1425.29 3129.41 1424.31 3134.81 1424.31 3144.99 1424.31 3152.83 1427.98 3158.33 1435.32 3163.82 1442.67 3166.57 1452.8 3166.57 1465.72 3166.57 1478.4 3163.07 1488.74 3156.07 1496.73 3149.07 1504.72 3140.33 1508.72 3129.86 1508.72 3125.37 1508.72 3121.43 1508.24 3118.04 1507.28 3114.64 1506.32 3111.42 1504.94 3108.36 1503.12L3107.28 1507.14 3082.45 1507.14ZM2582.72 1395.45 2610.07 1395.45 2610.07 1415.05 2582.72 1415.05ZM1846.67 1395.45 1872.58 1395.45 1872.58 1507.14 1846.67 1507.14ZM1698.85 1395.45 1724.76 1395.45 1724.76 1507.14 1698.85 1507.14ZM1648.44 1395.45 1674.35 1395.45 1674.35 1507.14 1648.44 1507.14Z" stroke="#FFFFFF" stroke-width="1" stroke-linecap="butt" stroke-linejoin="miter" stroke-miterlimit="8" stroke-opacity="1" fill="#000000" fill-rule="evenodd" fill-opacity="1"/><text fill="#000000" fill-opacity="0" font-family="Arial,Arial_MSFontService,sans-serif" font-size="142.047" direction="ltr" writing-mode="lr-tb" x="1273.47" y="1519.74">Parallel Computing Lab</text></g></g></svg>